<?xml version="1.0" ?><svg enable-background="new 0 0 32 32" version="1.1" viewBox="0 0 32 32" xml:space="preserve" xmlns="http://www.w3.org/2000/svg" xmlns:xlink="http://www.w3.org/1999/xlink"><g id="Layer_6"/><g id="Layer_4_copy"><g><circle cx="16" cy="16" fill="#D3D3D3" r="16"/><circle cx="16" cy="16" fill="#FFFFFF" r="13.809"/><linearGradient gradientUnits="userSpaceOnUse" id="SVGID_1_" x1="16" x2="16" y1="27.597" y2="4.403"><stop offset="0" style="stop-color:#FF2D76"/><stop offset="1" style="stop-color:#FB0000"/></linearGradient><circle cx="16" cy="16" fill="url(#SVGID_1_)" r="11.597"/></g></g><g id="Official_copy_2"><path d="M18.29,23.86h-2.094H14.1c0,0,0.006-1.243,0-2.096c-2.868,0.617-3.668-1.572-3.668-1.572   c-0.524-1.048-1.048-1.572-1.048-1.572c-1.048-0.622,0-0.524,0-0.524c1.048,0,1.572,1.048,1.572,1.048   c0.92,1.561,2.556,1.31,3.144,1.048c0-0.524,0.23-1.316,0.524-1.572c-2.289-0.258-4.194-1.572-4.194-4.192s0.526-3.144,1.05-3.668   c-0.106-0.258-0.544-1.213,0.016-2.62c0,0,1.03,0,2.078,1.572c0.519-0.519,2.096-0.524,2.62-0.524c0.523,0,2.1,0.005,2.619,0.524   c1.048-1.572,2.08-1.572,2.08-1.572c0.56,1.407,0.122,2.362,0.016,2.62c0.524,0.524,1.048,1.048,1.048,3.668   s-1.903,3.934-4.192,4.192c0.295,0.256,0.524,1.157,0.524,1.572L18.29,23.86L18.29,23.86z" fill="#FFFFFF" id="Cat_2_"/></g></svg>