<?xml version="1.0" ?><!DOCTYPE svg  PUBLIC '-//W3C//DTD SVG 1.1//EN'  'http://www.w3.org/Graphics/SVG/1.1/DTD/svg11.dtd'><svg enable-background="new 0 0 1024 1024" height="1024px" id="Linkedin" version="1.1" viewBox="0 0 1024 1024" width="1024px" xml:space="preserve" xmlns="http://www.w3.org/2000/svg" xmlns:xlink="http://www.w3.org/1999/xlink"><g id="Background"><linearGradient gradientTransform="matrix(0.9397 0.342 0.342 -0.9397 275.869 765.6678)" gradientUnits="userSpaceOnUse" id="bg_1_" x1="464.3252" x2="-194.0465" y1="-73.2012" y2="711.4601"><stop offset="0" style="stop-color:#061D36"/><stop offset="0.1426" style="stop-color:#06233F"/><stop offset="0.3751" style="stop-color:#053457"/><stop offset="0.6685" style="stop-color:#044F7F"/><stop offset="1" style="stop-color:#0374B4"/></linearGradient><circle cx="512.001" cy="512" fill="url(#bg_1_)" id="bg" r="512"/></g><g id="Linkedin_1_"><polygon fill="#FFFFFF" points="283.688,732.715 389.991,732.715 389.862,360.274 283.56,360.274  "/><path d="M756.622,459.913c-2.603-14.823-6.825-29.415-13.292-43.03c-3.735-7.865-8.44-15.298-14.018-21.996   c-6.509-7.813-15.168-15.005-23.963-20.125c-7.535-4.387-16.126-8.369-24.534-10.754c-4.985-1.273-10.105-2.148-15.301-2.733   c-15.595-1.755-31.854-0.905-47.479,0.299c-4.487,0.523-8.942,1.156-13.357,1.914c-4.414,0.758-8.788,1.642-13.107,2.635   c-7.62,2.349-14.249,6.053-19.914,10.912c-5.665,4.86-10.366,10.876-14.143,17.84c-2.167,3.997-4.043,8.214-5.266,12.602   c-0.063,0.231-1.167,5.42-0.94,5.42h-1.654l-0.13-52.622H443.262l0.129,372.522h105.559c0,0,0-199.771,0-227.093   c0-12.697,8.156-23.276,18.619-29.622c10.146-6.153,22.69-6.704,34.226-7.451c5.264-0.341,10.749-0.17,15.992,0.371   c9.104,0.941,18.279,3.818,25.085,10.183c11.363,10.629,13.125,26.838,13.125,41.521c0,11.863,0,23.727,0,35.591   c0,17.921,0,35.841,0,53.761c0,19.175,0,38.348,0,57.521c0,15.562,0,31.124,0,46.687c0,6.179,0,12.355,0,18.533H760.56   c0-6.171,0-12.342,0-18.513c0-15.825,0-31.65,0-47.477c0-19.485,0-38.974,0-58.46c0-31.925,0-63.85,0-95.773   C760.56,495.019,759.663,477.239,756.622,459.913z" fill="#FFFFFF"/><circle cx="336.84" cy="281.912" fill="#FFFFFF" r="53.4"/></g></svg>